<?xml version="1.0" encoding="utf-8" ?>
<svg baseProfile="full" height="1204.72438" version="1.1" width="2515.74797" xmlns="http://www.w3.org/2000/svg" xmlns:ev="http://www.w3.org/2001/xml-events" xmlns:xlink="http://www.w3.org/1999/xlink"><defs /><rect fill="white" height="1204.72438" opacity="1" stroke-width="0" width="2515.74797" x="0.0" y="0.0" /><g><g id="vlines" stroke="lightgray"><line x1="0.0" x2="0.0" y1="70.86614" y2="1169.29131" /><text fill="black" font-family="Verdana" font-size="12" stroke="black" stroke-width="0" x="3.543307" y="67.322833">F 21</text><line x1="35.43307" x2="35.43307" y1="70.86614" y2="1169.29131" /><rect fill="gray" height="1098.42517" opacity="0.7" stroke="lightgray" stroke-width="1" width="35.43307" x="35.43307" y="70.86614" /><text fill="black" font-family="Verdana" font-size="12" stroke="black" stroke-width="0" x="38.976377" y="67.322833">S 22</text><line x1="70.86614" x2="70.86614" y1="70.86614" y2="1169.29131" /><rect fill="gray" height="1098.42517" opacity="0.7" stroke="lightgray" stroke-width="1" width="35.43307" x="70.86614" y="70.86614" /><text fill="black" font-family="Verdana" font-size="12" stroke="black" stroke-width="0" x="74.409447" y="67.322833">S 23</text><line x1="106.29921" x2="106.29921" y1="70.86614" y2="1169.29131" /><text fill="black" font-family="Verdana" font-size="12" stroke="black" stroke-width="0" x="109.842517" y="67.322833">M 24</text><text fill="black" font-family="Verdana" font-size="16" font-weight="bold" stroke="black" stroke-width="0" x="109.842517" y="53.149605">26</text><line x1="141.73228" x2="141.73228" y1="70.86614" y2="1169.29131" /><text fill="black" font-family="Verdana" font-size="12" stroke="black" stroke-width="0" x="145.275587" y="67.322833">T 25</text><line x1="177.16535" x2="177.16535" y1="70.86614" y2="1169.29131" /><text fill="black" font-family="Verdana" font-size="12" stroke="black" stroke-width="0" x="180.708657" y="67.322833">W 26</text><line x1="212.59842" x2="212.59842" y1="70.86614" y2="1169.29131" /><text fill="black" font-family="Verdana" font-size="12" stroke="black" stroke-width="0" x="216.141727" y="67.322833">T 27</text><line x1="248.03149000000002" x2="248.03149000000002" y1="70.86614" y2="1169.29131" /><text fill="black" font-family="Verdana" font-size="12" stroke="black" stroke-width="0" x="251.574797" y="67.322833">F 28</text><line x1="283.46456" x2="283.46456" y1="70.86614" y2="1169.29131" /><rect fill="gray" height="1098.42517" opacity="0.7" stroke="lightgray" stroke-width="1" width="35.43307" x="283.46456" y="70.86614" /><text fill="black" font-family="Verdana" font-size="12" stroke="black" stroke-width="0" x="287.007867" y="67.322833">S 29</text><line x1="318.89763" x2="318.89763" y1="70.86614" y2="1169.29131" /><rect fill="gray" height="1098.42517" opacity="0.7" stroke="lightgray" stroke-width="1" width="35.43307" x="318.89763" y="70.86614" /><text fill="black" font-family="Verdana" font-size="12" stroke="black" stroke-width="0" x="322.440937" y="67.322833">S 30</text><line x1="354.3307" x2="354.3307" y1="70.86614" y2="1169.29131" /><text fill="black" font-family="Verdana" font-size="12" stroke="black" stroke-width="0" x="357.874007" y="67.322833">M 01</text><text fill="#800000" font-family="Verdana" font-size="18" font-weight="bold" stroke="#800000" stroke-width="0" x="357.874007" y="35.43307">July</text><text fill="black" font-family="Verdana" font-size="16" font-weight="bold" stroke="black" stroke-width="0" x="357.874007" y="53.149605">27</text><line x1="389.76377" x2="389.76377" y1="70.86614" y2="1169.29131" /><text fill="black" font-family="Verdana" font-size="12" stroke="black" stroke-width="0" x="393.307077" y="67.322833">T 02</text><line x1="425.19684" x2="425.19684" y1="70.86614" y2="1169.29131" /><text fill="black" font-family="Verdana" font-size="12" stroke="black" stroke-width="0" x="428.740147" y="67.322833">W 03</text><line x1="460.62991" x2="460.62991" y1="70.86614" y2="1169.29131" /><text fill="black" font-family="Verdana" font-size="12" stroke="black" stroke-width="0" x="464.173217" y="67.322833">T 04</text><line x1="496.06298000000004" x2="496.06298000000004" y1="70.86614" y2="1169.29131" /><text fill="black" font-family="Verdana" font-size="12" stroke="black" stroke-width="0" x="499.606287" y="67.322833">F 05</text><line x1="531.49605" x2="531.49605" y1="70.86614" y2="1169.29131" /><rect fill="gray" height="1098.42517" opacity="0.7" stroke="lightgray" stroke-width="1" width="35.43307" x="531.49605" y="70.86614" /><text fill="black" font-family="Verdana" font-size="12" stroke="black" stroke-width="0" x="535.039357" y="67.322833">S 06</text><line x1="566.92912" x2="566.92912" y1="70.86614" y2="1169.29131" /><rect fill="gray" height="1098.42517" opacity="0.7" stroke="lightgray" stroke-width="1" width="35.43307" x="566.92912" y="70.86614" /><text fill="black" font-family="Verdana" font-size="12" stroke="black" stroke-width="0" x="570.472427" y="67.322833">S 07</text><line x1="602.36219" x2="602.36219" y1="70.86614" y2="1169.29131" /><text fill="black" font-family="Verdana" font-size="12" stroke="black" stroke-width="0" x="605.905497" y="67.322833">M 08</text><text fill="black" font-family="Verdana" font-size="16" font-weight="bold" stroke="black" stroke-width="0" x="605.905497" y="53.149605">28</text><line x1="637.79526" x2="637.79526" y1="70.86614" y2="1169.29131" /><text fill="black" font-family="Verdana" font-size="12" stroke="black" stroke-width="0" x="641.338567" y="67.322833">T 09</text><line x1="673.22833" x2="673.22833" y1="70.86614" y2="1169.29131" /><text fill="black" font-family="Verdana" font-size="12" stroke="black" stroke-width="0" x="676.7716369999999" y="67.322833">W 10</text><line x1="708.6614" x2="708.6614" y1="70.86614" y2="1169.29131" /><text fill="black" font-family="Verdana" font-size="12" stroke="black" stroke-width="0" x="712.204707" y="67.322833">T 11</text><line x1="744.09447" x2="744.09447" y1="70.86614" y2="1169.29131" /><text fill="black" font-family="Verdana" font-size="12" stroke="black" stroke-width="0" x="747.637777" y="67.322833">F 12</text><line x1="779.52754" x2="779.52754" y1="70.86614" y2="1169.29131" /><rect fill="gray" height="1098.42517" opacity="0.7" stroke="lightgray" stroke-width="1" width="35.43307" x="779.52754" y="70.86614" /><text fill="black" font-family="Verdana" font-size="12" stroke="black" stroke-width="0" x="783.070847" y="67.322833">S 13</text><line x1="814.96061" x2="814.96061" y1="70.86614" y2="1169.29131" /><rect fill="gray" height="1098.42517" opacity="0.7" stroke="lightgray" stroke-width="1" width="35.43307" x="814.96061" y="70.86614" /><text fill="black" font-family="Verdana" font-size="12" stroke="black" stroke-width="0" x="818.503917" y="67.322833">S 14</text><line x1="850.39368" x2="850.39368" y1="70.86614" y2="1169.29131" /><text fill="black" font-family="Verdana" font-size="12" stroke="black" stroke-width="0" x="853.936987" y="67.322833">M 15</text><text fill="black" font-family="Verdana" font-size="16" font-weight="bold" stroke="black" stroke-width="0" x="853.936987" y="53.149605">29</text><line x1="885.8267500000001" x2="885.8267500000001" y1="70.86614" y2="1169.29131" /><text fill="black" font-family="Verdana" font-size="12" stroke="black" stroke-width="0" x="889.370057" y="67.322833">T 16</text><line x1="921.25982" x2="921.25982" y1="70.86614" y2="1169.29131" /><text fill="black" font-family="Verdana" font-size="12" stroke="black" stroke-width="0" x="924.803127" y="67.322833">W 17</text><line x1="956.69289" x2="956.69289" y1="70.86614" y2="1169.29131" /><text fill="black" font-family="Verdana" font-size="12" stroke="black" stroke-width="0" x="960.236197" y="67.322833">T 18</text><line x1="992.1259600000001" x2="992.1259600000001" y1="70.86614" y2="1169.29131" /><text fill="black" font-family="Verdana" font-size="12" stroke="black" stroke-width="0" x="995.669267" y="67.322833">F 19</text><line x1="1027.5590300000001" x2="1027.5590300000001" y1="70.86614" y2="1169.29131" /><rect fill="gray" height="1098.42517" opacity="0.7" stroke="lightgray" stroke-width="1" width="35.43307" x="1027.5590300000001" y="70.86614" /><text fill="black" font-family="Verdana" font-size="12" stroke="black" stroke-width="0" x="1031.102337" y="67.322833">S 20</text><line x1="1062.9921" x2="1062.9921" y1="70.86614" y2="1169.29131" /><rect fill="gray" height="1098.42517" opacity="0.7" stroke="lightgray" stroke-width="1" width="35.43307" x="1062.9921" y="70.86614" /><text fill="black" font-family="Verdana" font-size="12" stroke="black" stroke-width="0" x="1066.535407" y="67.322833">S 21</text><line x1="1098.42517" x2="1098.42517" y1="70.86614" y2="1169.29131" /><text fill="black" font-family="Verdana" font-size="12" stroke="black" stroke-width="0" x="1101.968477" y="67.322833">M 22</text><text fill="black" font-family="Verdana" font-size="16" font-weight="bold" stroke="black" stroke-width="0" x="1101.968477" y="53.149605">30</text><line x1="1133.85824" x2="1133.85824" y1="70.86614" y2="1169.29131" /><text fill="black" font-family="Verdana" font-size="12" stroke="black" stroke-width="0" x="1137.401547" y="67.322833">T 23</text><line x1="1169.29131" x2="1169.29131" y1="70.86614" y2="1169.29131" /><text fill="black" font-family="Verdana" font-size="12" stroke="black" stroke-width="0" x="1172.834617" y="67.322833">W 24</text><line x1="1204.72438" x2="1204.72438" y1="70.86614" y2="1169.29131" /><text fill="black" font-family="Verdana" font-size="12" stroke="black" stroke-width="0" x="1208.267687" y="67.322833">T 25</text><line x1="1240.15745" x2="1240.15745" y1="70.86614" y2="1169.29131" /><text fill="black" font-family="Verdana" font-size="12" stroke="black" stroke-width="0" x="1243.700757" y="67.322833">F 26</text><line x1="1275.59052" x2="1275.59052" y1="70.86614" y2="1169.29131" /><rect fill="gray" height="1098.42517" opacity="0.7" stroke="lightgray" stroke-width="1" width="35.43307" x="1275.59052" y="70.86614" /><text fill="black" font-family="Verdana" font-size="12" stroke="black" stroke-width="0" x="1279.1338269999999" y="67.322833">S 27</text><line x1="1311.02359" x2="1311.02359" y1="70.86614" y2="1169.29131" /><rect fill="gray" height="1098.42517" opacity="0.7" stroke="lightgray" stroke-width="1" width="35.43307" x="1311.02359" y="70.86614" /><text fill="black" font-family="Verdana" font-size="12" stroke="black" stroke-width="0" x="1314.566897" y="67.322833">S 28</text><line x1="1346.45666" x2="1346.45666" y1="70.86614" y2="1169.29131" /><text fill="black" font-family="Verdana" font-size="12" stroke="black" stroke-width="0" x="1349.999967" y="67.322833">M 29</text><text fill="black" font-family="Verdana" font-size="16" font-weight="bold" stroke="black" stroke-width="0" x="1349.999967" y="53.149605">31</text><line x1="1381.88973" x2="1381.88973" y1="70.86614" y2="1169.29131" /><text fill="black" font-family="Verdana" font-size="12" stroke="black" stroke-width="0" x="1385.433037" y="67.322833">T 30</text><line x1="1417.3228" x2="1417.3228" y1="70.86614" y2="1169.29131" /><text fill="black" font-family="Verdana" font-size="12" stroke="black" stroke-width="0" x="1420.866107" y="67.322833">W 31</text><line x1="1452.75587" x2="1452.75587" y1="70.86614" y2="1169.29131" /><text fill="black" font-family="Verdana" font-size="12" stroke="black" stroke-width="0" x="1456.299177" y="67.322833">T 01</text><text fill="#800000" font-family="Verdana" font-size="18" font-weight="bold" stroke="#800000" stroke-width="0" x="1456.299177" y="35.43307">August</text><line x1="1488.18894" x2="1488.18894" y1="70.86614" y2="1169.29131" /><text fill="black" font-family="Verdana" font-size="12" stroke="black" stroke-width="0" x="1491.732247" y="67.322833">F 02</text><line x1="1523.62201" x2="1523.62201" y1="70.86614" y2="1169.29131" /><rect fill="gray" height="1098.42517" opacity="0.7" stroke="lightgray" stroke-width="1" width="35.43307" x="1523.62201" y="70.86614" /><text fill="black" font-family="Verdana" font-size="12" stroke="black" stroke-width="0" x="1527.165317" y="67.322833">S 03</text><line x1="1559.05508" x2="1559.05508" y1="70.86614" y2="1169.29131" /><rect fill="gray" height="1098.42517" opacity="0.7" stroke="lightgray" stroke-width="1" width="35.43307" x="1559.05508" y="70.86614" /><text fill="black" font-family="Verdana" font-size="12" stroke="black" stroke-width="0" x="1562.598387" y="67.322833">S 04</text><line x1="1594.4881500000001" x2="1594.4881500000001" y1="70.86614" y2="1169.29131" /><text fill="black" font-family="Verdana" font-size="12" stroke="black" stroke-width="0" x="1598.031457" y="67.322833">M 05</text><text fill="black" font-family="Verdana" font-size="16" font-weight="bold" stroke="black" stroke-width="0" x="1598.031457" y="53.149605">32</text><line x1="1629.92122" x2="1629.92122" y1="70.86614" y2="1169.29131" /><text fill="black" font-family="Verdana" font-size="12" stroke="black" stroke-width="0" x="1633.464527" y="67.322833">T 06</text><line x1="1665.35429" x2="1665.35429" y1="70.86614" y2="1169.29131" /><text fill="black" font-family="Verdana" font-size="12" stroke="black" stroke-width="0" x="1668.897597" y="67.322833">W 07</text><line x1="1700.78736" x2="1700.78736" y1="70.86614" y2="1169.29131" /><text fill="black" font-family="Verdana" font-size="12" stroke="black" stroke-width="0" x="1704.330667" y="67.322833">T 08</text><line x1="1736.22043" x2="1736.22043" y1="70.86614" y2="1169.29131" /><text fill="black" font-family="Verdana" font-size="12" stroke="black" stroke-width="0" x="1739.763737" y="67.322833">F 09</text><line x1="1771.6535000000001" x2="1771.6535000000001" y1="70.86614" y2="1169.29131" /><rect fill="gray" height="1098.42517" opacity="0.7" stroke="lightgray" stroke-width="1" width="35.43307" x="1771.6535000000001" y="70.86614" /><text fill="black" font-family="Verdana" font-size="12" stroke="black" stroke-width="0" x="1775.196807" y="67.322833">S 10</text><line x1="1807.08657" x2="1807.08657" y1="70.86614" y2="1169.29131" /><rect fill="gray" height="1098.42517" opacity="0.7" stroke="lightgray" stroke-width="1" width="35.43307" x="1807.08657" y="70.86614" /><text fill="black" font-family="Verdana" font-size="12" stroke="black" stroke-width="0" x="1810.629877" y="67.322833">S 11</text><line x1="1842.51964" x2="1842.51964" y1="70.86614" y2="1169.29131" /><text fill="black" font-family="Verdana" font-size="12" stroke="black" stroke-width="0" x="1846.062947" y="67.322833">M 12</text><text fill="black" font-family="Verdana" font-size="16" font-weight="bold" stroke="black" stroke-width="0" x="1846.062947" y="53.149605">33</text><line x1="1877.95271" x2="1877.95271" y1="70.86614" y2="1169.29131" /><text fill="black" font-family="Verdana" font-size="12" stroke="black" stroke-width="0" x="1881.496017" y="67.322833">T 13</text><line x1="1913.38578" x2="1913.38578" y1="70.86614" y2="1169.29131" /><text fill="black" font-family="Verdana" font-size="12" stroke="black" stroke-width="0" x="1916.929087" y="67.322833">W 14</text><line x1="1948.81885" x2="1948.81885" y1="70.86614" y2="1169.29131" /><text fill="black" font-family="Verdana" font-size="12" stroke="black" stroke-width="0" x="1952.362157" y="67.322833">T 15</text><line x1="1984.2519200000002" x2="1984.2519200000002" y1="70.86614" y2="1169.29131" /><text fill="black" font-family="Verdana" font-size="12" stroke="black" stroke-width="0" x="1987.795227" y="67.322833">F 16</text><line x1="2019.68499" x2="2019.68499" y1="70.86614" y2="1169.29131" /><rect fill="gray" height="1098.42517" opacity="0.7" stroke="lightgray" stroke-width="1" width="35.43307" x="2019.68499" y="70.86614" /><text fill="black" font-family="Verdana" font-size="12" stroke="black" stroke-width="0" x="2023.2282969999999" y="67.322833">S 17</text><line x1="2055.1180600000002" x2="2055.1180600000002" y1="70.86614" y2="1169.29131" /><rect fill="gray" height="1098.42517" opacity="0.7" stroke="lightgray" stroke-width="1" width="35.43307" x="2055.1180600000002" y="70.86614" /><text fill="black" font-family="Verdana" font-size="12" stroke="black" stroke-width="0" x="2058.661367" y="67.322833">S 18</text><line x1="2090.55113" x2="2090.55113" y1="70.86614" y2="1169.29131" /><text fill="black" font-family="Verdana" font-size="12" stroke="black" stroke-width="0" x="2094.094437" y="67.322833">M 19</text><text fill="black" font-family="Verdana" font-size="16" font-weight="bold" stroke="black" stroke-width="0" x="2094.094437" y="53.149605">34</text><line x1="2125.9842" x2="2125.9842" y1="70.86614" y2="1169.29131" /><text fill="black" font-family="Verdana" font-size="12" stroke="black" stroke-width="0" x="2129.527507" y="67.322833">T 20</text><line x1="2161.41727" x2="2161.41727" y1="70.86614" y2="1169.29131" /><text fill="black" font-family="Verdana" font-size="12" stroke="black" stroke-width="0" x="2164.960577" y="67.322833">W 21</text><line x1="2196.85034" x2="2196.85034" y1="70.86614" y2="1169.29131" /><text fill="black" font-family="Verdana" font-size="12" stroke="black" stroke-width="0" x="2200.393647" y="67.322833">T 22</text><line x1="2232.28341" x2="2232.28341" y1="70.86614" y2="1169.29131" /><text fill="black" font-family="Verdana" font-size="12" stroke="black" stroke-width="0" x="2235.826717" y="67.322833">F 23</text><line x1="2267.71648" x2="2267.71648" y1="70.86614" y2="1169.29131" /><rect fill="gray" height="1098.42517" opacity="0.7" stroke="lightgray" stroke-width="1" width="35.43307" x="2267.71648" y="70.86614" /><text fill="black" font-family="Verdana" font-size="12" stroke="black" stroke-width="0" x="2271.259787" y="67.322833">S 24</text><line x1="2303.14955" x2="2303.14955" y1="70.86614" y2="1169.29131" /><rect fill="gray" height="1098.42517" opacity="0.7" stroke="lightgray" stroke-width="1" width="35.43307" x="2303.14955" y="70.86614" /><text fill="black" font-family="Verdana" font-size="12" stroke="black" stroke-width="0" x="2306.692857" y="67.322833">S 25</text><line x1="2338.58262" x2="2338.58262" y1="70.86614" y2="1169.29131" /><text fill="black" font-family="Verdana" font-size="12" stroke="black" stroke-width="0" x="2342.125927" y="67.322833">M 26</text><text fill="black" font-family="Verdana" font-size="16" font-weight="bold" stroke="black" stroke-width="0" x="2342.125927" y="53.149605">35</text><line x1="2374.01569" x2="2374.01569" y1="70.86614" y2="1169.29131" /><text fill="black" font-family="Verdana" font-size="12" stroke="black" stroke-width="0" x="2377.558997" y="67.322833">T 27</text><line x1="2409.44876" x2="2409.44876" y1="70.86614" y2="1169.29131" /><text fill="black" font-family="Verdana" font-size="12" stroke="black" stroke-width="0" x="2412.992067" y="67.322833">W 28</text><line x1="2444.8818300000003" x2="2444.8818300000003" y1="70.86614" y2="1169.29131" /><text fill="black" font-family="Verdana" font-size="12" stroke="black" stroke-width="0" x="2448.425137" y="67.322833">T 29</text><line x1="2480.3149" x2="2480.3149" y1="70.86614" y2="1169.29131" /><text fill="black" font-family="Verdana" font-size="12" stroke="black" stroke-width="0" x="2483.8582069999998" y="67.322833">F 30</text><line x1="2515.74797" x2="2515.74797" y1="70.86614" y2="1169.29131" /></g><g id="hlines" stroke="lightgray"><line x1="0.0" x2="2515.74797" y1="70.86614" y2="70.86614" /><line x1="0.0" x2="2515.74797" y1="106.29921" y2="106.29921" /><line x1="0.0" x2="2515.74797" y1="141.73228" y2="141.73228" /><line x1="0.0" x2="2515.74797" y1="177.16535" y2="177.16535" /><line x1="0.0" x2="2515.74797" y1="212.59842" y2="212.59842" /><line x1="0.0" x2="2515.74797" y1="248.03149000000002" y2="248.03149000000002" /><line x1="0.0" x2="2515.74797" y1="283.46456" y2="283.46456" /><line x1="0.0" x2="2515.74797" y1="318.89763" y2="318.89763" /><line x1="0.0" x2="2515.74797" y1="354.3307" y2="354.3307" /><line x1="0.0" x2="2515.74797" y1="389.76377" y2="389.76377" /><line x1="0.0" x2="2515.74797" y1="425.19684" y2="425.19684" /><line x1="0.0" x2="2515.74797" y1="460.62991" y2="460.62991" /><line x1="0.0" x2="2515.74797" y1="496.06298000000004" y2="496.06298000000004" /><line x1="0.0" x2="2515.74797" y1="531.49605" y2="531.49605" /><line x1="0.0" x2="2515.74797" y1="566.92912" y2="566.92912" /><line x1="0.0" x2="2515.74797" y1="602.36219" y2="602.36219" /><line x1="0.0" x2="2515.74797" y1="637.79526" y2="637.79526" /><line x1="0.0" x2="2515.74797" y1="673.22833" y2="673.22833" /><line x1="0.0" x2="2515.74797" y1="708.6614" y2="708.6614" /><line x1="0.0" x2="2515.74797" y1="744.09447" y2="744.09447" /><line x1="0.0" x2="2515.74797" y1="779.52754" y2="779.52754" /><line x1="0.0" x2="2515.74797" y1="814.96061" y2="814.96061" /><line x1="0.0" x2="2515.74797" y1="850.39368" y2="850.39368" /><line x1="0.0" x2="2515.74797" y1="885.8267500000001" y2="885.8267500000001" /><line x1="0.0" x2="2515.74797" y1="921.25982" y2="921.25982" /><line x1="0.0" x2="2515.74797" y1="956.69289" y2="956.69289" /><line x1="0.0" x2="2515.74797" y1="992.1259600000001" y2="992.1259600000001" /><line x1="0.0" x2="2515.74797" y1="1027.5590300000001" y2="1027.5590300000001" /><line x1="0.0" x2="2515.74797" y1="1062.9921" y2="1062.9921" /><line x1="0.0" x2="2515.74797" y1="1098.42517" y2="1098.42517" /><line x1="0.0" x2="2515.74797" y1="1133.85824" y2="1133.85824" /><line x1="0.0" x2="2515.74797" y1="1169.29131" y2="1169.29131" /></g><line stroke="black" x1="0.0" x2="2515.74797" y1="70.86614" y2="70.86614" /><line stroke="black" x1="0.0" x2="2515.74797" y1="1169.29131" y2="1169.29131" /></g><g><g><text fill="black" font-family="Verdana" font-size="18" stroke="black" stroke-width="0" x="10.629921" y="95.669289">input.csv</text><rect fill="purple" height="1077.165328" opacity="0.5" stroke="lightgray" stroke-width="0" width="7.086614000000001" x="2.8346456" y="88.582675" /><g><g id="Task_1"><rect fill="#69A006" height="28.346456" opacity="0.85" stroke="#69A006" stroke-width="2" width="205.511806" x="38.976377" y="109.842517" /><rect fill="#909090" height="10.629921" opacity="0.2" stroke="#69A006" stroke-width="1" width="205.511806" x="38.976377" y="127.559052" /><text fill="black" font-family="Verdana" font-size="15" stroke="black" stroke-width="0" x="42.519684" y="124.015745">Task 1</text><text fill="purple" font-family="Verdana" font-size="10" stroke="black" stroke-width="0" x="42.519684" y="136.4173195">Joe</text></g><g id="Task_2"><rect fill="#3A774F" height="28.346456" opacity="0.85" stroke="#3A774F" stroke-width="2" width="488.976366" x="251.574797" y="145.275587" /><rect fill="#909090" height="10.629921" opacity="0.2" stroke="#3A774F" stroke-width="1" width="488.976366" x="251.574797" y="162.992122" /><text fill="black" font-family="Verdana" font-size="15" stroke="black" stroke-width="0" x="255.118104" y="159.448815">Task 2</text><text fill="purple" font-family="Verdana" font-size="10" stroke="black" stroke-width="0" x="255.118104" y="171.8503895">Mark</text></g><g id="Task_3"><rect fill="#8B2E7A" height="28.346456" opacity="0.85" stroke="#8B2E7A" stroke-width="2" width="28.346456" x="251.574797" y="180.708657" /><rect fill="#909090" height="10.629921" opacity="0.2" stroke="#8B2E7A" stroke-width="1" width="28.346456" x="251.574797" y="198.425192" /><text fill="black" font-family="Verdana" font-size="15" stroke="black" stroke-width="0" x="255.118104" y="194.881885">Task 3</text><text fill="purple" font-family="Verdana" font-size="10" stroke="black" stroke-width="0" x="255.118104" y="207.2834595">Kevin</text></g><g id="Task_4"><rect fill="#D20953" height="28.346456" opacity="0.85" stroke="#D20953" stroke-width="2" width="170.078736" x="747.637777" y="216.141727" /><rect fill="#909090" height="10.629921" opacity="0.2" stroke="#D20953" stroke-width="1" width="170.078736" x="747.637777" y="233.858262" /><text fill="black" font-family="Verdana" font-size="15" stroke="black" stroke-width="0" x="751.1810839999999" y="230.314955">Task 4</text><text fill="purple" font-family="Verdana" font-size="10" stroke="black" stroke-width="0" x="751.1810839999999" y="242.7165295">Leslie</text></g><g id="Task_5"><rect fill="#69A006" height="28.346456" opacity="0.85" stroke="#69A006" stroke-width="2" width="737.007856" x="251.574797" y="251.574797" /><rect fill="#909090" height="10.629921" opacity="0.2" stroke="#69A006" stroke-width="1" width="737.007856" x="251.574797" y="269.291332" /><text fill="black" font-family="Verdana" font-size="15" stroke="black" stroke-width="0" x="255.118104" y="265.748025">Task 5</text><text fill="purple" font-family="Verdana" font-size="10" stroke="black" stroke-width="0" x="255.118104" y="278.1495995">Joe</text></g><g id="Task_6"><rect fill="#165744" height="28.346456" opacity="0.85" stroke="#165744" stroke-width="2" width="134.645666" x="38.976377" y="287.007867" /><rect fill="#909090" height="10.629921" opacity="0.2" stroke="#165744" stroke-width="1" width="134.645666" x="38.976377" y="304.724402" /><text fill="black" font-family="Verdana" font-size="15" stroke="black" stroke-width="0" x="42.519684" y="301.18109499999997">Task 6</text><text fill="purple" font-family="Verdana" font-size="10" stroke="black" stroke-width="0" x="42.519684" y="313.5826695">Roger</text></g><g id="Task_7"><rect fill="#69A006" height="28.346456" opacity="0.85" stroke="#69A006" stroke-width="2" width="488.976366" x="995.669267" y="322.440937" /><rect fill="#909090" height="10.629921" opacity="0.2" stroke="#69A006" stroke-width="1" width="488.976366" x="995.669267" y="340.157472" /><text fill="black" font-family="Verdana" font-size="15" stroke="black" stroke-width="0" x="999.212574" y="336.614165">Task 7</text><text fill="purple" font-family="Verdana" font-size="10" stroke="black" stroke-width="0" x="999.212574" y="349.0157395">Joe</text></g><g id="Task_8"><rect fill="#69A006" height="28.346456" opacity="0.85" stroke="#69A006" stroke-width="2" width="28.346456" x="1491.732247" y="357.874007" /><rect fill="#909090" height="10.629921" opacity="0.2" stroke="#69A006" stroke-width="1" width="28.346456" x="1491.732247" y="375.59054199999997" /><text fill="black" font-family="Verdana" font-size="15" stroke="black" stroke-width="0" x="1495.275554" y="372.047235">Task 8</text><text fill="purple" font-family="Verdana" font-size="10" stroke="black" stroke-width="0" x="1495.275554" y="384.4488095">Joe</text></g><g id="Task_9"><rect fill="#D20953" height="28.346456" opacity="0.85" stroke="#D20953" stroke-width="2" width="134.645666" x="1527.165317" y="393.307077" /><rect fill="#909090" height="10.629921" opacity="0.2" stroke="#D20953" stroke-width="1" width="134.645666" x="1527.165317" y="411.023612" /><text fill="black" font-family="Verdana" font-size="15" stroke="black" stroke-width="0" x="1530.708624" y="407.480305">Task 9</text><text fill="purple" font-family="Verdana" font-size="10" stroke="black" stroke-width="0" x="1530.708624" y="419.8818795">Leslie</text></g><g id="Task_10"><rect fill="#8B2E7A" height="28.346456" opacity="0.85" stroke="#8B2E7A" stroke-width="2" width="99.212596" x="1668.897597" y="428.740147" /><rect fill="#909090" height="10.629921" opacity="0.2" stroke="#8B2E7A" stroke-width="1" width="99.212596" x="1668.897597" y="446.456682" /><text fill="black" font-family="Verdana" font-size="15" stroke="black" stroke-width="0" x="1672.440904" y="442.913375">Task 10</text><text fill="purple" font-family="Verdana" font-size="10" stroke="black" stroke-width="0" x="1672.440904" y="455.3149495">Kevin</text></g><g id="Task_11"><rect fill="#69A006" height="28.346456" opacity="0.85" stroke="#69A006" stroke-width="2" width="99.212596" x="1775.196807" y="464.173217" /><rect fill="#909090" height="10.629921" opacity="0.2" stroke="#69A006" stroke-width="1" width="99.212596" x="1775.196807" y="481.889752" /><text fill="black" font-family="Verdana" font-size="15" stroke="black" stroke-width="0" x="1778.740114" y="478.346445">Task 11</text><text fill="purple" font-family="Verdana" font-size="10" stroke="black" stroke-width="0" x="1778.740114" y="490.7480195">Joe</text></g><g id="Task_12"><rect fill="#D20953" height="28.346456" opacity="0.85" stroke="#D20953" stroke-width="2" width="240.944876" x="1881.496017" y="499.606287" /><rect fill="#909090" height="10.629921" opacity="0.2" stroke="#D20953" stroke-width="1" width="240.944876" x="1881.496017" y="517.322822" /><text fill="black" font-family="Verdana" font-size="15" stroke="black" stroke-width="0" x="1885.039324" y="513.779515">Task 12</text><text fill="purple" font-family="Verdana" font-size="10" stroke="black" stroke-width="0" x="1885.039324" y="526.1810895">Leslie</text></g><g id="Task_13"><rect fill="#69A006" height="28.346456" opacity="0.85" stroke="#69A006" stroke-width="2" width="28.346456" x="1527.165317" y="535.039357" /><rect fill="#909090" height="10.629921" opacity="0.2" stroke="#69A006" stroke-width="1" width="28.346456" x="1527.165317" y="552.755892" /><text fill="black" font-family="Verdana" font-size="15" stroke="black" stroke-width="0" x="1530.708624" y="549.212585">Task 13</text><text fill="purple" font-family="Verdana" font-size="10" stroke="black" stroke-width="0" x="1530.708624" y="561.6141595">Joe</text></g><g id="Task_14"><rect fill="#3A774F" height="28.346456" opacity="0.85" stroke="#3A774F" stroke-width="2" width="170.078736" x="747.637777" y="570.472427" /><rect fill="#909090" height="10.629921" opacity="0.2" stroke="#3A774F" stroke-width="1" width="170.078736" x="747.637777" y="588.188962" /><text fill="black" font-family="Verdana" font-size="15" stroke="black" stroke-width="0" x="751.1810839999999" y="584.645655">Task 14</text><text fill="purple" font-family="Verdana" font-size="10" stroke="black" stroke-width="0" x="751.1810839999999" y="597.0472295">Mark</text></g><g id="Task_15"><rect fill="#69A006" height="28.346456" opacity="0.85" stroke="#69A006" stroke-width="2" width="170.078736" x="1562.598387" y="605.905497" /><rect fill="#909090" height="10.629921" opacity="0.2" stroke="#69A006" stroke-width="1" width="170.078736" x="1562.598387" y="623.622032" /><text fill="black" font-family="Verdana" font-size="15" stroke="black" stroke-width="0" x="1566.141694" y="620.078725">Task 15</text><text fill="purple" font-family="Verdana" font-size="10" stroke="black" stroke-width="0" x="1566.141694" y="632.4802995">Joe / Roger</text></g><g id="Task_16"><rect fill="#69A006" height="28.346456" opacity="0.85" stroke="#69A006" stroke-width="2" width="28.346456" x="1739.763737" y="641.338567" /><rect fill="#909090" height="10.629921" opacity="0.2" stroke="#69A006" stroke-width="1" width="28.346456" x="1739.763737" y="659.055102" /><text fill="black" font-family="Verdana" font-size="15" stroke="black" stroke-width="0" x="1743.307044" y="655.511795">Task 16</text><text fill="purple" font-family="Verdana" font-size="10" stroke="black" stroke-width="0" x="1743.307044" y="667.9133695">Joe</text></g><g id="Task_17"><rect fill="#69A006" height="28.346456" opacity="0.85" stroke="#69A006" stroke-width="2" width="99.212596" x="1881.496017" y="676.7716369999999" /><rect fill="#909090" height="10.629921" opacity="0.2" stroke="#69A006" stroke-width="1" width="99.212596" x="1881.496017" y="694.488172" /><text fill="black" font-family="Verdana" font-size="15" stroke="black" stroke-width="0" x="1885.039324" y="690.944865">Task 17</text><text fill="purple" font-family="Verdana" font-size="10" stroke="black" stroke-width="0" x="1885.039324" y="703.3464395">Joe</text></g><g id="Task_18"><rect fill="#CF9EB8" height="28.346456" opacity="0.85" stroke="#CF9EB8" stroke-width="2" width="170.078736" x="1987.795227" y="712.204707" /><rect fill="#909090" height="10.629921" opacity="0.2" stroke="#CF9EB8" stroke-width="1" width="170.078736" x="1987.795227" y="729.921242" /><text fill="black" font-family="Verdana" font-size="15" stroke="black" stroke-width="0" x="1991.338534" y="726.377935">Task 18</text><text fill="purple" font-family="Verdana" font-size="10" stroke="black" stroke-width="0" x="1991.338534" y="738.7795095">Andy / April</text></g><g id="Task_19"><rect fill="#69A006" height="28.346456" opacity="0.85" stroke="#69A006" stroke-width="2" width="28.346456" x="1987.795227" y="747.637777" /><rect fill="#909090" height="10.629921" opacity="0.2" stroke="#69A006" stroke-width="1" width="28.346456" x="1987.795227" y="765.354312" /><text fill="black" font-family="Verdana" font-size="15" stroke="black" stroke-width="0" x="1991.338534" y="761.811005">Task 19</text><text fill="purple" font-family="Verdana" font-size="10" stroke="black" stroke-width="0" x="1991.338534" y="774.2125795">Joe</text></g><g id="Task_20"><rect fill="#69A006" height="28.346456" opacity="0.85" stroke="#69A006" stroke-width="2" width="28.346456" x="2023.2282969999999" y="783.070847" /><rect fill="#909090" height="10.629921" opacity="0.2" stroke="#69A006" stroke-width="1" width="28.346456" x="2023.2282969999999" y="800.787382" /><text fill="black" font-family="Verdana" font-size="15" stroke="black" stroke-width="0" x="2026.771604" y="797.244075">Task 20</text><text fill="purple" font-family="Verdana" font-size="10" stroke="black" stroke-width="0" x="2026.771604" y="809.6456495">Joe</text></g><g id="Task_21"><rect fill="#8B2E7A" height="28.346456" opacity="0.85" stroke="#8B2E7A" stroke-width="2" width="28.346456" x="38.976377" y="818.503917" /><rect fill="#909090" height="10.629921" opacity="0.2" stroke="#8B2E7A" stroke-width="1" width="28.346456" x="38.976377" y="836.220452" /><text fill="black" font-family="Verdana" font-size="15" stroke="black" stroke-width="0" x="42.519684" y="832.677145">Task 21</text><text fill="purple" font-family="Verdana" font-size="10" stroke="black" stroke-width="0" x="42.519684" y="845.0787195">Kevin</text></g><g id="Task_22"><rect fill="#69A006" height="28.346456" opacity="0.85" stroke="#69A006" stroke-width="2" width="99.212596" x="2058.661367" y="853.936987" /><rect fill="#909090" height="10.629921" opacity="0.2" stroke="#69A006" stroke-width="1" width="99.212596" x="2058.661367" y="871.653522" /><text fill="black" font-family="Verdana" font-size="15" stroke="black" stroke-width="0" x="2062.204674" y="868.110215">Task 22</text><text fill="purple" font-family="Verdana" font-size="10" stroke="black" stroke-width="0" x="2062.204674" y="880.5117895">Joe</text></g><g id="Task_23"><rect fill="#3A774F" height="28.346456" opacity="0.85" stroke="#3A774F" stroke-width="2" width="99.212596" x="2164.960577" y="889.370057" /><rect fill="#909090" height="10.629921" opacity="0.2" stroke="#3A774F" stroke-width="1" width="99.212596" x="2164.960577" y="907.086592" /><text fill="black" font-family="Verdana" font-size="15" stroke="black" stroke-width="0" x="2168.503884" y="903.543285">Task 23</text><text fill="purple" font-family="Verdana" font-size="10" stroke="black" stroke-width="0" x="2168.503884" y="915.9448595">Mark</text></g><g id="Task_24"><rect fill="#D20953" height="28.346456" opacity="0.85" stroke="#D20953" stroke-width="2" width="134.645666" x="2271.259787" y="924.803127" /><rect fill="#909090" height="10.629921" opacity="0.2" stroke="#D20953" stroke-width="1" width="134.645666" x="2271.259787" y="942.519662" /><text fill="black" font-family="Verdana" font-size="15" stroke="black" stroke-width="0" x="2274.803094" y="938.976355">Task 24</text><text fill="purple" font-family="Verdana" font-size="10" stroke="black" stroke-width="0" x="2274.803094" y="951.3779295">Leslie</text></g><g id="Task_25"><rect fill="#69A006" height="28.346456" opacity="0.85" stroke="#69A006" stroke-width="2" width="63.779526" x="2164.960577" y="960.236197" /><rect fill="#909090" height="10.629921" opacity="0.2" stroke="#69A006" stroke-width="1" width="63.779526" x="2164.960577" y="977.952732" /><text fill="black" font-family="Verdana" font-size="15" stroke="black" stroke-width="0" x="2168.503884" y="974.4094249999999">Task 25</text><text fill="purple" font-family="Verdana" font-size="10" stroke="black" stroke-width="0" x="2168.503884" y="986.8109995">Joe</text></g><g id="Task_26"><rect fill="#CF9EB8" height="28.346456" opacity="0.85" stroke="#CF9EB8" stroke-width="2" width="99.212596" x="38.976377" y="995.669267" /><rect fill="#909090" height="10.629921" opacity="0.2" stroke="#CF9EB8" stroke-width="1" width="99.212596" x="38.976377" y="1013.385802" /><text fill="black" font-family="Verdana" font-size="15" stroke="black" stroke-width="0" x="42.519684" y="1009.842495">Task 26</text><text fill="purple" font-family="Verdana" font-size="10" stroke="black" stroke-width="0" x="42.519684" y="1022.2440695">Andy</text></g><g id="Task_27"><rect fill="#B7D031" height="28.346456" opacity="0.85" stroke="#B7D031" stroke-width="2" width="99.212596" x="38.976377" y="1031.102337" /><rect fill="#909090" height="10.629921" opacity="0.2" stroke="#B7D031" stroke-width="1" width="99.212596" x="38.976377" y="1048.818872" /><text fill="black" font-family="Verdana" font-size="15" stroke="black" stroke-width="0" x="42.519684" y="1045.275565">Task 27</text><text fill="purple" font-family="Verdana" font-size="10" stroke="black" stroke-width="0" x="42.519684" y="1057.6771395">April</text></g><g id="Task_28"><rect fill="#69A006" height="28.346456" opacity="0.85" stroke="#69A006" stroke-width="2" width="28.346456" x="2235.826717" y="1066.535407" /><rect fill="#909090" height="10.629921" opacity="0.2" stroke="#69A006" stroke-width="1" width="28.346456" x="2235.826717" y="1084.251942" /><text fill="black" font-family="Verdana" font-size="15" stroke="black" stroke-width="0" x="2239.370024" y="1080.708635">Task 28</text><text fill="purple" font-family="Verdana" font-size="10" stroke="black" stroke-width="0" x="2239.370024" y="1093.1102094999999">Joe</text></g><g id="Task_29"><rect fill="#3A774F" height="28.346456" opacity="0.85" stroke="#3A774F" stroke-width="2" width="205.511806" x="38.976377" y="1101.968477" /><rect fill="#909090" height="10.629921" opacity="0.2" stroke="#3A774F" stroke-width="1" width="205.511806" x="38.976377" y="1119.685012" /><text fill="black" font-family="Verdana" font-size="15" stroke="black" stroke-width="0" x="42.519684" y="1116.141705">Task 29</text><text fill="purple" font-family="Verdana" font-size="10" stroke="black" stroke-width="0" x="42.519684" y="1128.5432795">Mark</text></g><g id="Task_30"><rect fill="#69A006" height="28.346456" opacity="0.85" stroke="#69A006" stroke-width="2" width="28.346456" x="2271.259787" y="1137.401547" /><rect fill="#909090" height="10.629921" opacity="0.2" stroke="#69A006" stroke-width="1" width="28.346456" x="2271.259787" y="1155.118082" /><text fill="black" font-family="Verdana" font-size="15" stroke="black" stroke-width="0" x="2274.803094" y="1151.574775">Task 30</text><text fill="purple" font-family="Verdana" font-size="10" stroke="black" stroke-width="0" x="2274.803094" y="1163.9763495">Joe</text></g></g></g><g><g><line stroke="black" stroke-dasharray="5,3" x1="240.944876" x2="248.03149" y1="124.015745" y2="124.015745" /><marker id="id113" markerHeight="10" markerWidth="10" refX="5" refY="5"><circle cx="5" cy="5" fill="#000000" opacity="0.5" r="5" stroke-width="0" /></marker><line marker-end="url(#id113)" stroke="black" stroke-dasharray="5,3" x1="248.03149" x2="248.03149" y1="124.015745" y2="159.448815" /></g><g><line stroke="black" stroke-dasharray="5,3" x1="240.944876" x2="248.03149" y1="124.015745" y2="124.015745" /><marker id="id114" markerHeight="10" markerWidth="10" refX="5" refY="5"><circle cx="5" cy="5" fill="#000000" opacity="0.5" r="5" stroke-width="0" /></marker><line marker-end="url(#id114)" stroke="black" stroke-dasharray="5,3" x1="248.03149" x2="248.03149" y1="124.015745" y2="194.881885" /></g><g><line stroke="black" stroke-dasharray="5,3" x1="737.007856" x2="744.09447" y1="159.448815" y2="159.448815" /><marker id="id115" markerHeight="10" markerWidth="10" refX="5" refY="5"><circle cx="5" cy="5" fill="#000000" opacity="0.5" r="5" stroke-width="0" /></marker><line marker-end="url(#id115)" stroke="black" stroke-dasharray="5,3" x1="744.09447" x2="744.09447" y1="159.448815" y2="230.314955" /></g><g><line stroke="black" stroke-dasharray="5,3" x1="985.039346" x2="992.12596" y1="265.748025" y2="265.748025" /><marker id="id116" markerHeight="10" markerWidth="10" refX="5" refY="5"><circle cx="5" cy="5" fill="#000000" opacity="0.5" r="5" stroke-width="0" /></marker><line marker-end="url(#id116)" stroke="black" stroke-dasharray="5,3" x1="992.12596" x2="992.12596" y1="265.748025" y2="336.614165" /></g><g><line stroke="black" stroke-dasharray="5,3" x1="1516.535396" x2="1523.62201" y1="372.047235" y2="372.047235" /><marker id="id117" markerHeight="10" markerWidth="10" refX="5" refY="5"><circle cx="5" cy="5" fill="#000000" opacity="0.5" r="5" stroke-width="0" /></marker><line marker-end="url(#id117)" stroke="black" stroke-dasharray="5,3" x1="1523.62201" x2="1523.62201" y1="372.047235" y2="407.480305" /></g><g><line stroke="black" stroke-dasharray="5,3" x1="1658.267676" x2="1665.35429" y1="407.480305" y2="407.480305" /><marker id="id118" markerHeight="10" markerWidth="10" refX="5" refY="5"><circle cx="5" cy="5" fill="#000000" opacity="0.5" r="5" stroke-width="0" /></marker><line marker-end="url(#id118)" stroke="black" stroke-dasharray="5,3" x1="1665.35429" x2="1665.35429" y1="407.480305" y2="442.913375" /></g><g><line stroke="black" stroke-dasharray="5,3" x1="1764.566886" x2="1771.6535" y1="442.913375" y2="442.913375" /><marker id="id119" markerHeight="10" markerWidth="10" refX="5" refY="5"><circle cx="5" cy="5" fill="#000000" opacity="0.5" r="5" stroke-width="0" /></marker><line marker-end="url(#id119)" stroke="black" stroke-dasharray="5,3" x1="1771.6535" x2="1771.6535" y1="442.913375" y2="478.346445" /></g><g><line stroke="black" stroke-dasharray="5,3" x1="1870.866096" x2="1877.95271" y1="478.346445" y2="478.346445" /><marker id="id120" markerHeight="10" markerWidth="10" refX="5" refY="5"><circle cx="5" cy="5" fill="#000000" opacity="0.5" r="5" stroke-width="0" /></marker><line marker-end="url(#id120)" stroke="black" stroke-dasharray="5,3" x1="1877.95271" x2="1877.95271" y1="478.346445" y2="513.779515" /></g><g><line stroke="black" stroke-dasharray="5,3" x1="737.007856" x2="744.09447" y1="159.448815" y2="159.448815" /><marker id="id121" markerHeight="10" markerWidth="10" refX="5" refY="5"><circle cx="5" cy="5" fill="#000000" opacity="0.5" r="5" stroke-width="0" /></marker><line marker-end="url(#id121)" stroke="black" stroke-dasharray="5,3" x1="744.09447" x2="744.09447" y1="159.448815" y2="584.645655" /></g><g><line stroke="black" stroke-dasharray="5,3" x1="914.173206" x2="1559.05508" y1="230.314955" y2="230.314955" /><marker id="id122" markerHeight="10" markerWidth="10" refX="5" refY="5"><circle cx="5" cy="5" fill="#000000" opacity="0.5" r="5" stroke-width="0" /></marker><line marker-end="url(#id122)" stroke="black" stroke-dasharray="5,3" x1="1559.05508" x2="1559.05508" y1="230.314955" y2="620.078725" /></g><g><line stroke="black" stroke-dasharray="5,3" x1="1764.566886" x2="1877.95271" y1="655.511795" y2="655.511795" /><marker id="id123" markerHeight="10" markerWidth="10" refX="5" refY="5"><circle cx="5" cy="5" fill="#000000" opacity="0.5" r="5" stroke-width="0" /></marker><line marker-end="url(#id123)" stroke="black" stroke-dasharray="5,3" x1="1877.95271" x2="1877.95271" y1="655.511795" y2="690.944865" /></g><g><line stroke="black" stroke-dasharray="5,3" x1="1977.165306" x2="1984.25192" y1="690.944865" y2="690.944865" /><marker id="id124" markerHeight="10" markerWidth="10" refX="5" refY="5"><circle cx="5" cy="5" fill="#000000" opacity="0.5" r="5" stroke-width="0" /></marker><line marker-end="url(#id124)" stroke="black" stroke-dasharray="5,3" x1="1984.25192" x2="1984.25192" y1="690.944865" y2="726.377935" /></g><g><line stroke="black" stroke-dasharray="5,3" x1="63.779526" x2="2055.11806" y1="832.677145" y2="832.677145" /><marker id="id125" markerHeight="10" markerWidth="10" refX="5" refY="5"><circle cx="5" cy="5" fill="#000000" opacity="0.5" r="5" stroke-width="0" /></marker><line marker-end="url(#id125)" stroke="black" stroke-dasharray="5,3" x1="2055.11806" x2="2055.11806" y1="832.677145" y2="868.110215" /></g><g><line stroke="black" stroke-dasharray="5,3" x1="2154.330656" x2="2161.41727" y1="868.110215" y2="868.110215" /><marker id="id126" markerHeight="10" markerWidth="10" refX="5" refY="5"><circle cx="5" cy="5" fill="#000000" opacity="0.5" r="5" stroke-width="0" /></marker><line marker-end="url(#id126)" stroke="black" stroke-dasharray="5,3" x1="2161.41727" x2="2161.41727" y1="868.110215" y2="903.543285" /></g><g><line stroke="black" stroke-dasharray="5,3" x1="2260.6298659999998" x2="2267.71648" y1="903.543285" y2="903.543285" /><marker id="id127" markerHeight="10" markerWidth="10" refX="5" refY="5"><circle cx="5" cy="5" fill="#000000" opacity="0.5" r="5" stroke-width="0" /></marker><line marker-end="url(#id127)" stroke="black" stroke-dasharray="5,3" x1="2267.71648" x2="2267.71648" y1="903.543285" y2="938.976355" /></g><g><line stroke="black" stroke-dasharray="5,3" x1="134.645666" x2="2267.71648" y1="1045.275565" y2="1045.275565" /><marker id="id128" markerHeight="10" markerWidth="10" refX="5" refY="5"><circle cx="5" cy="5" fill="#000000" opacity="0.5" r="5" stroke-width="0" /></marker><line marker-end="url(#id128)" stroke="black" stroke-dasharray="5,3" x1="2267.71648" x2="2267.71648" y1="1045.275565" y2="1151.574775" /></g></g></g></svg>